<?xml version="1.0" standalone="yes"?>
<svg xmlns="http://www.w3.org/2000/svg" width="1098" height="626">
<path style="fill:#ffffff; stroke:none;" d="M0 0L0 626L1098 626L1098 0L0 0z"/>
<path style="fill:#9a9c9d; stroke:none;" d="M509 196L509 197L517 197L509 196M503.667 197.333L504.333 197.667L503.667 197.333z"/>
<path style="fill:#383d40; stroke:none;" d="M525 227C521.107 224.373 505.769 215.772 508.998 209.684C511.373 205.207 518.826 205.802 523 206.09C536.322 207.006 548.978 214.501 557 225L558 225C553.624 206.591 525.747 201.077 510 204L510 203C518.621 201.222 525.467 200.961 534 203.749C539.887 205.673 545.75 210.72 552 210C541.337 200.736 524.813 196.84 511 197.004C504.25 197.084 495.186 198.576 495.084 207.004C494.951 217.969 515.445 237.819 525 227z"/>
<path style="fill:#9a9c9d; stroke:none;" d="M521.667 197.333L522.333 197.667L521.667 197.333M500 198L501 199L500 198M526.667 198.333L527.333 198.667L526.667 198.333M498 199L499 200L498 199M530 199L531 200L530 199M497 200L498 201L497 200M533 200L534 201L533 200M516 201L516 203L525 202L516 201M536 201L537 202L536 201M495 202L496 203L495 202M510 203L510 204L514 203L510 203z"/>
<path style="fill:#ffffff; stroke:none;" d="M514.667 202.333L515.333 202.667L514.667 202.333M523 202L523 203L527 203L523 202z"/>
<path style="fill:#9a9c9d; stroke:none;" d="M527 204L530 202L527 204M538.667 202.333L539.333 202.667L538.667 202.333z"/>
<path style="fill:#ffffff; stroke:none;" d="M529 203L529 204L532 204L529 203z"/>
<path style="fill:#9a9c9d; stroke:none;" d="M531 205L534 203L531 205M541 203L542 204L541 203M494 204L494 210L495 210L494 204M509 204L508 206L509 204z"/>
<path style="fill:#ffffff; stroke:none;" d="M533 204L533 205L558 221C553.359 212.079 542.551 206.269 533 204z"/>
<path style="fill:#9a9c9d; stroke:none;" d="M535.667 204.333L536.333 204.667L535.667 204.333M543 204L544 205L543 204M534 205L535 206L534 205M538 205L539 206L538 205M545 205L546 206L545 205M512 206L512 207L515 207L512 206z"/>
<path style="fill:#ffffff; stroke:none;" d="M522 224L522 220L537 216C537.658 220.187 548.136 221.528 552 222L551 226C540.144 222.919 534.003 222.375 523 224C528.894 229.906 539.848 232.101 548 231.981C553.57 231.9 560.09 229.355 555.562 223.001C548.406 212.959 522.484 198.937 510.333 208.14C503.558 213.271 518.074 222.49 522 224z"/>
<path style="fill:#9a9c9d; stroke:none;" d="M525.667 206.333L526.333 206.667L525.667 206.333M537 206L538 207L537 206M540 206L541 207L540 206M547 206L548 207L547 206M510 207L511 208L510 207M530 207L530 208L533 208L530 207M539 207L540 208L539 207M542.667 207.333L543.333 207.667L542.667 207.333M548.667 207.333L549.333 207.667L548.667 207.333M534 208L535 209L534 208M541 208L542 209L541 208M544 208L545 209L544 208M550 208L551 209L550 208z"/>
<path style="fill:#383d40; stroke:none;" d="M493 209C493.067 232.367 523.308 244.334 543 247.41C554.31 249.176 569.722 248.084 571 234L570 234C554.631 253.686 516.056 235.677 502.015 221.96C497.986 218.024 495.735 213.767 493 209z"/>
<path style="fill:#9a9c9d; stroke:none;" d="M531 209L531 215L532 215L532 213L533 213L532 217C534.727 214.507 533.04 211.567 531 209M536 209L537 210L536 209M543 209L544 210L543 209M546 209L547 210L546 209M552 209L549 212L559 222C552.665 238.78 537.023 229.562 524 226C522.039 232.521 515.874 228.946 511 229L511 230C513.51 229.498 516.645 230.421 516 233L519 232L518 234L521 233L520 235C523.006 234.499 525.675 234.301 525 237L528 238L531 239L534 240C536.95 239.017 537.622 238.513 537 241C540.263 240.456 542.804 238.783 542 242L561 242C561 239.564 561.786 240.385 564 241C576.145 229.047 564.411 216.166 552 209M492 210L492 215L493 215L492 210z"/>
<path style="fill:#ffffff; stroke:none;" d="M494.333 210.667L494.667 211.333L494.333 210.667z"/>
<path style="fill:#9a9c9d; stroke:none;" d="M507 210L508 211L507 210M538.667 210.333L539.333 210.667L538.667 210.333M545 210L546 211L545 210M547.667 210.333L548.333 210.667L547.667 210.333M495 211L494 213L496 213L495 211z"/>
<path style="fill:#383d40; stroke:none;" d="M531.333 211.667L531.667 212.333L531.333 211.667z"/>
<path style="fill:#9a9c9d; stroke:none;" d="M541 211L542 212L541 211M508 212L509 213L508 212M548 212L549 213L548 212z"/>
<path style="fill:#ffffff; stroke:none;" d="M495 213L503 223L495 213z"/>
<path style="fill:#383d40; stroke:none;" d="M532 213L532 216L533 216L532 213z"/>
<path style="fill:#9a9c9d; stroke:none;" d="M544 213L545 214L544 213M495 214L496 215L495 214M509 214L510 215L509 214M546 214L547 215L546 214M497 215L498 216L497 215M510 215L511 216L510 215M547 215L548 216L547 215M498 216L499 217L498 216M511 216L512 217L511 216M535 216L522 220L521 225L524 226C524 217.286 546.845 225.235 551 226L552 222L537 216L535 216M493 217L494 218L493 217M497 217L498 218L497 217M550 217L551 218L550 217M499 218L500 219L499 218M551 218L552 219L551 218M494 219L495 220L494 219M500 219L501 220L500 219M514 219L515 220L514 219M552 219L553 220L552 219M501 220L502 221L501 220M515 220L516 221L515 220M553 220L554 221L553 220M556 220L557 221L556 220M495 221L496 222L495 221M502 221L503 222L502 221M516 221L517 222L516 221M554 221L555 222L554 221M487 223L487 224L493 226L487 223M496 222L497 223L496 222M503 222L508 226L503 222M518 222L519 223L518 222z"/>
<path style="fill:#383d40; stroke:none;" d="M522 222L523 223L522 222z"/>
<path style="fill:#9a9c9d; stroke:none;" d="M555 222L556 223L555 222z"/>
<path style="fill:#ffffff; stroke:none;" d="M558.333 222.667L558.667 223.333L558.333 222.667z"/>
<path style="fill:#383d40; stroke:none;" d="M473 261C484.355 255.692 501.002 246.677 509 237C503.302 233.955 495.271 224.32 489 223.998C474.756 223.267 473 251.993 473 261z"/>
<path style="fill:#ffffff; stroke:none;" d="M504 223L505 224L504 223z"/>
<path style="fill:#9a9c9d; stroke:none;" d="M519 223L520 224L519 223z"/>
<path style="fill:#ffffff; stroke:none;" d="M505 224L506 225L505 224M506 225L507 226L506 225z"/>
<path style="fill:#9a9c9d; stroke:none;" d="M499 226L500 227L499 226z"/>
<path style="fill:#ffffff; stroke:none;" d="M507 226L507 227L512 229L512 228L507 226z"/>
<path style="fill:#9a9c9d; stroke:none;" d="M509 226L510 227L509 226M500 227L501 228L500 227M508 227L509 228L508 227M510 227L511 228L510 227M496 228L497 229L496 228M501 228L502 229L501 228M522 228L523 229L522 228M497 229L498 230L497 229z"/>
<path style="fill:#ffffff; stroke:none;" d="M512 229L513 230L512 229z"/>
<path style="fill:#9a9c9d; stroke:none;" d="M498 230L499 231L498 230z"/>
<path style="fill:#ffffff; stroke:none;" d="M513.667 230.333L514.333 230.667L513.667 230.333z"/>
<path style="fill:#9a9c9d; stroke:none;" d="M479 231L480 232L479 231M505 231L506 232L505 231z"/>
<path style="fill:#ffffff; stroke:none;" d="M515.667 231.333L516.333 231.667L515.667 231.333z"/>
<path style="fill:#9a9c9d; stroke:none;" d="M579 231L580 237L581 237L579 231M501 232L502 233L501 232M506 232L507 233L506 232z"/>
<path style="fill:#ffffff; stroke:none;" d="M517.667 232.333L518.333 232.667L517.667 232.333z"/>
<path style="fill:#9a9c9d; stroke:none;" d="M581 232L582 237L585 236L585 234L581 232M502 233L503 234L502 233z"/>
<path style="fill:#ffffff; stroke:none;" d="M519.667 233.333L520.333 233.667L519.667 233.333z"/>
<path style="fill:#9a9c9d; stroke:none;" d="M477.333 234.667L477.667 235.333L477.333 234.667M504 234L505 235L504 234M509 234L510 235L509 234z"/>
<path style="fill:#ffffff; stroke:none;" d="M521.667 234.333L522.333 234.667L521.667 234.333z"/>
<path style="fill:#9a9c9d; stroke:none;" d="M506 235L507 236L506 235z"/>
<path style="fill:#ffffff; stroke:none;" d="M523 235L523 236L526 236L523 235z"/>
<path style="fill:#9a9c9d; stroke:none;" d="M476.333 236.667L476.667 237.333L476.333 236.667M507 236L508 237L507 236M512 236L513 237L512 236z"/>
<path style="fill:#ffffff; stroke:none;" d="M526.667 236.333L527.333 236.667L526.667 236.333z"/>
<path style="fill:#9a9c9d; stroke:none;" d="M472 260C472.517 262.458 473.583 263.523 475 261L479 262L479 260L507 259L507 260L505 260L505 261C508.518 261 511.894 258.423 511 262C514.232 261.461 515.725 260.102 515 263C518.698 261.767 524.796 262.815 524 266L535 267.385L559 253L522 242.988L508 238.632L472 260M514 237L515 238L514 237z"/>
<path style="fill:#ffffff; stroke:none;" d="M529.667 237.333L530.333 237.667L529.667 237.333z"/>
<path style="fill:#9a9c9d; stroke:none;" d="M516 238L517 239L516 238z"/>
<path style="fill:#ffffff; stroke:none;" d="M532.667 238.333L533.333 238.667L532.667 238.333z"/>
<path style="fill:#9a9c9d; stroke:none;" d="M570 238L571 239L570 238M475 239L476 240L475 239M518 239L519 240L518 239z"/>
<path style="fill:#ffffff; stroke:none;" d="M535 239L535 240L538 240L535 239M564 239L565 240L564 239z"/>
<path style="fill:#9a9c9d; stroke:none;" d="M520 240L521 241L520 240z"/>
<path style="fill:#ffffff; stroke:none;" d="M539 240L539 241L543 241L539 240M560 240L560 241L563 241L560 240z"/>
<path style="fill:#9a9c9d; stroke:none;" d="M522 241L523 242L522 241z"/>
<path style="fill:#ffffff; stroke:none;" d="M545 241L545 242L559 242L545 241z"/>
<path style="fill:#9a9c9d; stroke:none;" d="M474 242L475 243L474 242M568 242L569 243L568 242M527 243L528 244L527 243M567 243L568 244L567 243M530 244L531 245L530 244M473 245L472 258L473 258L473 245M533 245L534 246L533 245M564 245L565 246L564 245M537 246L538 247L537 246M542.667 247.333L543.333 247.667L542.667 247.333M557.667 247.333L558.333 247.667L557.667 247.333M598 250L598 251L601 251L598 250z"/>
<path style="fill:#383d40; stroke:none;" d="M539 271C548.898 283.159 559.942 290.627 566 306L587 299C582.804 276.651 598.436 265.078 619 273C617.402 262.893 603.795 263.553 596 265L596 264L616 265C613.223 260.126 608.796 252.352 603 250.773C598.059 249.427 590.853 252.347 586 253.424C569.867 257.007 553.298 262.655 539 271z"/>
<path style="fill:#9a9c9d; stroke:none;" d="M604 250L605 251L604 250M593.667 251.333L594.333 251.667L593.667 251.333M605 251L606 252L605 251z"/>
<path style="fill:#383d40; stroke:none;" d="M471 252L470 270C481.188 268.355 491.497 265.873 503 267.286C536.567 271.411 560.908 296.665 567 329L568 329C568 276.862 517.558 253.597 472 263L471 252z"/>
<path style="fill:#9a9c9d; stroke:none;" d="M588 252L588 253L591 253L588 252M606 252L607 253L606 252M584.667 253.333L585.333 253.667L584.667 253.333M607 253L608 254L607 253M580.667 254.333L581.333 254.667L580.667 254.333M470.333 255.667L470.667 256.333L470.333 255.667M577 255L578 256L577 255M573.667 256.333L574.333 256.667L573.667 256.333M570.667 257.333L571.333 257.667L570.667 257.333z"/>
<path style="fill:#ffffff; stroke:none;" d="M472.333 258.667L472.667 259.333L472.333 258.667z"/>
<path style="fill:#9a9c9d; stroke:none;" d="M567 258L568 259L567 258M611 258L612 259L611 258z"/>
<path style="fill:#ffffff; stroke:none;" d="M484 259L484 260L489 260L484 259M499 259L499 260L507 260L499 259z"/>
<path style="fill:#9a9c9d; stroke:none;" d="M564.667 259.333L565.333 259.667L564.667 259.333M612 259L613 260L612 259z"/>
<path style="fill:#ffffff; stroke:none;" d="M479.667 260.333L480.333 260.667L479.667 260.333M508 260L508 261L512 261L508 260z"/>
<path style="fill:#9a9c9d; stroke:none;" d="M561.667 260.333L562.333 260.667L561.667 260.333z"/>
<path style="fill:#ffffff; stroke:none;" d="M475.667 261.333L476.333 261.667L475.667 261.333M513 261L513 262L516 262L513 261z"/>
<path style="fill:#9a9c9d; stroke:none;" d="M559 261L560 262L559 261z"/>
<path style="fill:#ffffff; stroke:none;" d="M516 262L516 263L525 265L516 262z"/>
<path style="fill:#9a9c9d; stroke:none;" d="M556 262L557 263L556 262M614 262L615 263L614 262M518 263L519 264L518 263M554 263L555 264L554 263M598 265L601 264L598 265z"/>
<path style="fill:#ffffff; stroke:none;" d="M601 263L601 264L608 264L601 263z"/>
<path style="fill:#9a9c9d; stroke:none;" d="M608 265L611 263L608 265M615 263L616 264L615 263M521 264L522 265L521 264M551 264L552 265L551 264M596 264L597 265L596 264z"/>
<path style="fill:#ffffff; stroke:none;" d="M597 264L598 265L597 264M610.667 264.333L611.333 264.667L610.667 264.333z"/>
<path style="fill:#9a9c9d; stroke:none;" d="M612 264L612 266L614 264L612 264M549 265L550 266L549 265M590 270L596 266L590 270z"/>
<path style="fill:#ffffff; stroke:none;" d="M613.667 265.333L614.333 265.667L613.667 265.333z"/>
<path style="fill:#9a9c9d; stroke:none;" d="M615 265L615 267L617 265L615 265M526 266L527 267L526 266M547 266L548 267L547 266M481.667 267.333L482.333 267.667L481.667 267.333M502 267L502 268L505 268L502 267M528 267L529 268L528 267M544.667 267.333L545.333 267.667L544.667 267.333M617 267L618 268L617 267M476.667 268.333L477.333 268.667L476.667 268.333M509.667 268.333L510.333 268.667L509.667 268.333M530 268L531 269L530 268M542.667 268.333L543.333 268.667L542.667 268.333M618 268L619 269L618 268M473 269L474 270L473 269M513 269L514 270L513 269M532 269L533 270L532 269M540.667 269.333L541.333 269.667L540.667 269.333M601 269L601 270L609 270L601 269M470 270L471 271L470 270z"/>
<path style="fill:#fdcc07; stroke:none;" d="M493 270.425C461.934 274.642 443.983 303.699 462.725 331.576C475.408 350.44 500.003 359.522 522 356.117C548.686 351.987 561.534 324.609 549.73 301C539.891 281.323 515.23 267.408 493 270.425z"/>
<path style="fill:#9a9c9d; stroke:none;" d="M516.667 270.333L517.333 270.667L516.667 270.333M534 270L535 271L534 270M537 273L540 273L540 270L537 273M598 270L599 271L598 270M611.667 270.333L612.333 270.667L611.667 270.333M519.667 271.333L520.333 271.667L519.667 271.333M615 271L616 272L615 271M522 272L523 273L522 272z"/>
<path style="fill:#ffffff; stroke:none;" d="M538 272L539 273L538 272z"/>
<path style="fill:#9a9c9d; stroke:none;" d="M594 272L595 273L594 272M617 272L618 273L617 272M619 272L620 273L619 272M524 273L525 274L524 273z"/>
<path style="fill:#ffffff; stroke:none;" d="M539 273L539 274L555 287L539 273z"/>
<path style="fill:#9a9c9d; stroke:none;" d="M606 273L606 274L614 274L606 273M540 274L541 275L540 274M542 274L543 275L542 274M604 274L605 275L604 274z"/>
<path style="fill:#383d40; stroke:none;" d="M598 294L608 290L608 296L609 296C614.167 289.066 619.441 290 627 292C623.125 296.585 621.29 303.674 629 305L628 291L629 291L644 315L645 315C641.384 299.378 630.13 284.049 613 284L613 283L628 282C622.382 275.22 607.296 269.26 600.703 278.109C597.347 282.613 598 288.716 598 294z"/>
<path style="fill:#9a9c9d; stroke:none;" d="M616.667 274.333L617.333 274.667L616.667 274.333M543 275L544 276L543 275M602 275L603 276L602 275M619 275L620 276L619 275M590 276L591 277L590 276M601 276L602 277L601 276M621 276L622 277L621 276M532 277L533 278L532 277M544 277L545 278L544 277M546 277L547 278L546 277M589 277L590 278L589 277M600 277L601 278L600 277M623 277L624 278L623 277M534 278L535 279L534 278M545 278L546 279L545 278M547 278L548 279L547 278M599.333 278.667L599.667 279.333L599.333 278.667M624 278L625 279L624 278M546 279L547 280L546 279M548 279L549 280L548 279M588 279L589 280L588 279M626 279L627 280L626 279M537 280L538 281L537 280M549 280L550 281L549 280M627 280L628 281L627 280M538 281L539 282L538 281M550 281L551 282L550 281M587 281L588 282L587 281M598.333 281.667L598.667 282.333L598.333 281.667M621 285L624 284L623 286L626 285L625 287L629 287L629 290C632.919 290.493 637.529 296.153 638 300L641 302L639 301L639 302L642 302L641 305L643 304L642 307L644 306L643 310L644 310L644 308L645 308L644 313L645 313L645 311L646 311L647 322L652 320C650.375 307.94 644.222 297.143 636.41 288.004C632.474 283.4 625.979 279.185 621 285z"/>
<path style="fill:#ffffff; stroke:none;" d="M496 282L497 283L496 282z"/>
<path style="fill:#9a9c9d; stroke:none;" d="M498 282L499 283L498 282z"/>
<path style="fill:#ffffff; stroke:none;" d="M504 282L504 283L507 283L504 282z"/>
<path style="fill:#9a9c9d; stroke:none;" d="M540 282L541 283L540 282M551 282L552 283L551 282M615 282L615 283L620 283L615 282M492 283L493 284L492 283z"/>
<path style="fill:#d39005; stroke:none;" d="M472 305L473 305C491.339 278.983 535.286 292.918 538 324C542.761 314.093 537.11 302.166 529.985 295.015C513.876 278.848 475.905 276.164 472 305z"/>
<path style="fill:#9a9c9d; stroke:none;" d="M509 283L510 284L509 283z"/>
<path style="fill:#ffffff; stroke:none;" d="M510.667 283.333L511.333 283.667L510.667 283.333z"/>
<path style="fill:#9a9c9d; stroke:none;" d="M541 283L542 284L541 283M552 283L553 284L552 283M613 283L614 284L613 283z"/>
<path style="fill:#ffffff; stroke:none;" d="M614 283L614 284L621 284L614 283M514 284L515 285L514 284z"/>
<path style="fill:#9a9c9d; stroke:none;" d="M542 284L543 285L542 284M553 284L554 285L553 284M586.333 284.667L586.667 285.333L586.333 284.667M597 284L596 300L597 300L599 298L598 302L600 302L599 305L601 310L603 309L602 312L604 311L603 314L605 317L607 316L606 319L609 319L608 322L611 322L622 336L619 332L630 328C627.486 326.214 613.682 314.709 619 314L619 313L617 312L621 308L617 312L614 312L608 290L598 294L597 284M610 286L613 284L610 286z"/>
<path style="fill:#ffffff; stroke:none;" d="M622.667 284.333L623.333 284.667L622.667 284.333z"/>
<path style="fill:#9a9c9d; stroke:none;" d="M486 285L487 286L486 285M515 285L516 286L515 285z"/>
<path style="fill:#ffffff; stroke:none;" d="M516 285L517 286L516 285z"/>
<path style="fill:#9a9c9d; stroke:none;" d="M552 285L553 286L552 285z"/>
<path style="fill:#ffffff; stroke:none;" d="M624.667 285.333L625.333 285.667L624.667 285.333M519 286L520 287L519 286z"/>
<path style="fill:#9a9c9d; stroke:none;" d="M553 286L554 287L553 286z"/>
<path style="fill:#ffffff; stroke:none;" d="M626 286L627 287L626 286z"/>
<path style="fill:#9a9c9d; stroke:none;" d="M554 287L554 288L556 291L557 291L558 289L554 287M585 287L586 288L585 287z"/>
<path style="fill:#ffffff; stroke:none;" d="M627.667 287.333L628.333 287.667L627.667 287.333M522 288L523 289L522 288M555 288L556 289L555 288M629 288L630 289L629 288z"/>
<path style="fill:#9a9c9d; stroke:none;" d="M523 289L524 290L523 289z"/>
<path style="fill:#ffffff; stroke:none;" d="M524 289L525 290L524 289M556 289L557 290L556 289z"/>
<path style="fill:#9a9c9d; stroke:none;" d="M585.333 289.667L585.667 290.333L585.333 289.667M608 289L609 290L608 289z"/>
<path style="fill:#ffffff; stroke:none;" d="M630 289L631 290L630 289M525 290L526 291L525 290M557 290L560 296L561 296L557 290z"/>
<path style="fill:#9a9c9d; stroke:none;" d="M614 290L615 291L614 290z"/>
<path style="fill:#ffffff; stroke:none;" d="M614 312C619.144 309.908 626.274 306.327 632 308.492C636.87 310.333 640.014 315.068 645 317L629 292L628 292C628.463 297.816 631.803 304.752 624 306L626 292C608.029 286.303 608.793 299.305 614 312z"/>
<path style="fill:#9a9c9d; stroke:none;" d="M621.667 290.333L622.333 290.667L621.667 290.333z"/>
<path style="fill:#ffffff; stroke:none;" d="M631 290L634 293L631 290z"/>
<path style="fill:#fdcc07; stroke:none;" d="M492 291L493 292L492 291z"/>
<path style="fill:#ffffff; stroke:none;" d="M493 291.465C474.221 294.85 466.733 310.903 479.329 325.996C488.172 336.593 503.275 342.859 517 340.384C537.296 336.725 543.101 319.45 529.535 304.09C520.808 294.209 505.971 289.126 493 291.465z"/>
<path style="fill:#9a9c9d; stroke:none;" d="M558 291L559 292L558 291M612 291L613 292L612 291M624 291L625 292L624 291M628 291L629 292L628 291z"/>
<path style="fill:#fdcc07; stroke:none;" d="M488 292L489 293L488 292M510 292L511 293L510 292z"/>
<path style="fill:#9a9c9d; stroke:none;" d="M527 292L532 297L527 292z"/>
<path style="fill:#ffffff; stroke:none;" d="M528 292L529 293L528 292z"/>
<path style="fill:#9a9c9d; stroke:none;" d="M559 292L560 293L559 292M626 292L627 293L626 292M629 292L630 293L629 292z"/>
<path style="fill:#fdcc07; stroke:none;" d="M513 293L514 294L513 293z"/>
<path style="fill:#ffffff; stroke:none;" d="M529 293L530 294L529 293z"/>
<path style="fill:#9a9c9d; stroke:none;" d="M558 293L559 294L558 293M610 293L611 294L610 293z"/>
<path style="fill:#ffffff; stroke:none;" d="M634 293L635 294L634 293z"/>
<path style="fill:#9a9c9d; stroke:none;" d="M483 294L484 295L483 294z"/>
<path style="fill:#ffffff; stroke:none;" d="M530 294L531 295L530 294z"/>
<path style="fill:#9a9c9d; stroke:none;" d="M552 294L553 295L552 294M560 294L561 295L560 294M586 294L586 297L587 297L586 294z"/>
<path style="fill:#ffffff; stroke:none;" d="M597.333 294.667L597.667 295.333L597.333 294.667z"/>
<path style="fill:#9a9c9d; stroke:none;" d="M609 294L610 295L609 294z"/>
<path style="fill:#ffffff; stroke:none;" d="M635 294L637 296L635 294M531 295L532 296L531 295z"/>
<path style="fill:#9a9c9d; stroke:none;" d="M553 295L554 296L553 295M630 295L631 296L630 295z"/>
<path style="fill:#fdcc07; stroke:none;" d="M480 296L481 297L480 296z"/>
<path style="fill:#9a9c9d; stroke:none;" d="M560.667 296.333L561.333 296.667L560.667 296.333M628 296L628 300L629 300L628 296M631 296L632 297L631 296z"/>
<path style="fill:#ffffff; stroke:none;" d="M637 296L639 299L637 296z"/>
<path style="fill:#9a9c9d; stroke:none;" d="M502 297L503 303L504 303L502 297z"/>
<path style="fill:#fdcc07; stroke:none;" d="M521 297L522 298L521 297z"/>
<path style="fill:#9a9c9d; stroke:none;" d="M532 297L533 298L532 297z"/>
<path style="fill:#ffffff; stroke:none;" d="M561 297L562 298L561 297z"/>
<path style="fill:#9a9c9d; stroke:none;" d="M555 298L556 299L555 298M561 298L561 299L562 301L563 301L564 301L561 298M587 298C580.919 300.332 571.426 306.122 565 304L564 305L566 306L565 309C572.118 319.859 566.442 336.314 562 347C579.664 351.57 591.521 342.542 608 338L597.015 320L587 298z"/>
<path style="fill:#383d40; stroke:none;" d="M597 298C597.149 315.987 608.465 334.737 623 344.956C639.042 356.235 653.945 349.822 654 330L653 330C651.517 344.389 638.609 345.823 628 339.546C610.989 329.481 605.776 314.123 597 298z"/>
<path style="fill:#ffffff; stroke:none;" d="M598.333 298.667L598.667 299.333L598.333 298.667z"/>
<path style="fill:#383d40; stroke:none;" d="M502 299L503 312L506 311L502 299z"/>
<path style="fill:#9a9c9d; stroke:none;" d="M524 299L525 300L524 299z"/>
<path style="fill:#ffffff; stroke:none;" d="M534 299L535 300L534 299z"/>
<path style="fill:#9a9c9d; stroke:none;" d="M556 299L557 300L556 299z"/>
<path style="fill:#ffffff; stroke:none;" d="M562 299L563 300L562 299M639 299L641 302L639 299z"/>
<path style="fill:#fdcc07; stroke:none;" d="M525 300L526 301L525 300z"/>
<path style="fill:#9a9c9d; stroke:none;" d="M627 300L626 302L627 300M635 300L636 301L635 300z"/>
<path style="fill:#ffffff; stroke:none;" d="M535 301L536 302L535 301z"/>
<path style="fill:#9a9c9d; stroke:none;" d="M557 301L558 302L557 301z"/>
<path style="fill:#ffffff; stroke:none;" d="M563 301L564 302L563 301z"/>
<path style="fill:#9a9c9d; stroke:none;" d="M623.333 301.667L623.667 302.333L623.333 301.667M628 301L629 305L630 305L628 301M636 301L637 302L636 301M563.667 302.333L564.333 302.667L563.667 302.333z"/>
<path style="fill:#ffffff; stroke:none;" d="M599.333 302.667L599.667 303.333L599.333 302.667z"/>
<path style="fill:#9a9c9d; stroke:none;" d="M637 302L638 303L637 302z"/>
<path style="fill:#ffffff; stroke:none;" d="M641.333 302.667L641.667 303.333L641.333 302.667z"/>
<path style="fill:#9a9c9d; stroke:none;" d="M454 303L455 304L454 303z"/>
<path style="fill:#fdcc07; stroke:none;" d="M473 303L474 304L473 303z"/>
<path style="fill:#ffffff; stroke:none;" d="M564.333 303.667L564.667 304.333L564.333 303.667z"/>
<path style="fill:#9a9c9d; stroke:none;" d="M624 303C624.654 306.054 626.007 305.936 629 306L629 305L624 303z"/>
<path style="fill:#d39005; stroke:none;" d="M454 304C448.574 332.801 465.363 357.669 494 365.244C518.795 371.803 550.64 360.888 553 332L552 332C536.872 368.097 487.997 360.785 466.184 336C456.909 325.461 458.806 315.453 454 304z"/>
<path style="fill:#9a9c9d; stroke:none;" d="M504 304L504 307L505 307L504 304M559 304L560 305L559 304M638 304L639 305L638 304z"/>
<path style="fill:#ffffff; stroke:none;" d="M642.333 304.667L642.667 305.333L642.333 304.667z"/>
<path style="fill:#fdcc07; stroke:none;" d="M530 305L531 306L530 305z"/>
<path style="fill:#9a9c9d; stroke:none;" d="M597.333 305.667L597.667 306.333L597.333 305.667z"/>
<path style="fill:#ffffff; stroke:none;" d="M600 305L601 306L600 305z"/>
<path style="fill:#9a9c9d; stroke:none;" d="M631.333 305.667L631.667 306.333L631.333 305.667M639 305L640 306L639 305M560 306L561 307L560 306z"/>
<path style="fill:#ffffff; stroke:none;" d="M565.333 306.667L565.667 307.333L565.333 306.667M643.333 306.667L643.667 307.333L643.333 306.667z"/>
<path style="fill:#9a9c9d; stroke:none;" d="M502.333 307.667L502.667 308.333L502.333 307.667z"/>
<path style="fill:#ffffff; stroke:none;" d="M538 307L539 308L538 307M601.333 307.667L601.667 308.333L601.333 307.667z"/>
<path style="fill:#9a9c9d; stroke:none;" d="M629 307L629 309L625 308L625 309L627 310L625 312C630.286 314.363 638.503 326.043 643 318L645 320L646 320L644 315L645 317L629 307M640 307L641 308L640 307M505.333 308.667L505.667 309.333L505.333 308.667M561 308L562 309L561 308z"/>
<path style="fill:#383d40; stroke:none;" d="M627.667 308.333L628.333 308.667L627.667 308.333z"/>
<path style="fill:#ffffff; stroke:none;" d="M644 308L644 311L645 311L644 308z"/>
<path style="fill:#fdcc07; stroke:none;" d="M533 309L534 310L533 309z"/>
<path style="fill:#ffffff; stroke:none;" d="M566.333 309.667L566.667 310.333L566.333 309.667z"/>
<path style="fill:#9a9c9d; stroke:none;" d="M598 309L599 310L598 309z"/>
<path style="fill:#ffffff; stroke:none;" d="M602.333 309.667L602.667 310.333L602.333 309.667z"/>
<path style="fill:#383d40; stroke:none;" d="M617 313L627 309L617 313M628 312L632 310L628 312z"/>
<path style="fill:#9a9c9d; stroke:none;" d="M506 310L507 311L506 310M562 310L563 311L562 310M642 310L643 311L642 310M505 311L506 312L505 311z"/>
<path style="fill:#ffffff; stroke:none;" d="M539 311L540 312L539 311M603.333 311.667L603.667 312.333L603.333 311.667z"/>
<path style="fill:#383d40; stroke:none;" d="M616 311L617 312L616 311z"/>
<path style="fill:#fdcc07; stroke:none;" d="M452 312L453 313L452 312z"/>
<path style="fill:#9a9c9d; stroke:none;" d="M503 312L505 314L505 312L503 312M508 312L507 315L508 316L511 313L510 313L510 315L508 312M599 312L600 313L599 312M622.667 312.333L623.333 312.667L622.667 312.333z"/>
<path style="fill:#383d40; stroke:none;" d="M627 312L628 313L627 312z"/>
<path style="fill:#ffffff; stroke:none;" d="M455 313L456 314L455 313z"/>
<path style="fill:#383d40; stroke:none;" d="M509.333 313.667L509.667 314.333L509.333 313.667z"/>
<path style="fill:#fdcc07; stroke:none;" d="M535 313L536 314L535 313z"/>
<path style="fill:#9a9c9d; stroke:none;" d="M563 313L564 314L563 313z"/>
<path style="fill:#ffffff; stroke:none;" d="M567 313L567 316L568 316L567 313M604.333 313.667L604.667 314.333L604.333 313.667z"/>
<path style="fill:#9a9c9d; stroke:none;" d="M643 313L644 314L643 313M455 315L456 316L455 315M600 315L601 316L600 315z"/>
<path style="fill:#ffffff; stroke:none;" d="M605 315L606 316L605 315z"/>
<path style="fill:#9a9c9d; stroke:none;" d="M506 316L487 323L486 324C487.005 327.016 487.821 328.705 485 328L514 324L514 323L512 317L505 322L506 316M564 316L565 317L564 316z"/>
<path style="fill:#ffffff; stroke:none;" d="M606.333 316.667L606.667 317.333L606.333 316.667z"/>
<path style="fill:#383d40; stroke:none;" d="M506 317L505 322L508 317L506 317M512 317C510.453 326.285 524.245 327.925 531 330L532 325L512 317z"/>
<path style="fill:#9a9c9d; stroke:none;" d="M513 317L514 318L513 317M601 317L602 318L601 317z"/>
<path style="fill:#ffffff; stroke:none;" d="M456 318L457 319L456 318z"/>
<path style="fill:#9a9c9d; stroke:none;" d="M514.667 318.333L515.333 318.667L514.667 318.333z"/>
<path style="fill:#ffffff; stroke:none;" d="M607 318L609 321L607 318z"/>
<path style="fill:#383d40; stroke:none;" d="M643 318L644 319L643 318z"/>
<path style="fill:#9a9c9d; stroke:none;" d="M456 319L457 320L456 319M516.667 319.333L517.333 319.667L516.667 319.333z"/>
<path style="fill:#fdcc07; stroke:none;" d="M537 319L538 320L537 319z"/>
<path style="fill:#9a9c9d; stroke:none;" d="M539 319L540 320L539 319M519 320L520 321L519 320M565 320L566 321L565 320z"/>
<path style="fill:#fdcc07; stroke:none;" d="M452 321L453 322L452 321z"/>
<path style="fill:#ffffff; stroke:none;" d="M457 321L458 322L457 321z"/>
<path style="fill:#9a9c9d; stroke:none;" d="M521.667 321.333L522.333 321.667L521.667 321.333z"/>
<path style="fill:#ffffff; stroke:none;" d="M609 321L610 322L609 321z"/>
<path style="fill:#9a9c9d; stroke:none;" d="M457 322L458 323L457 322M523 322L523 323L526 323L523 322z"/>
<path style="fill:#ffffff; stroke:none;" d="M610 322L612 325L610 322M458 323L459 324L458 323z"/>
<path style="fill:#9a9c9d; stroke:none;" d="M526 323L526 324L532 325L531 331L535 325L526 323M604 323L605 324L604 323M458 324L459 325L458 324z"/>
<path style="fill:#383d40; stroke:none;" d="M487 324L488 325L487 324z"/>
<path style="fill:#9a9c9d; stroke:none;" d="M515 324L516 325L515 324M653 324L653 330L654 330L653 324z"/>
<path style="fill:#ffffff; stroke:none;" d="M459 325L460 326L459 325z"/>
<path style="fill:#383d40; stroke:none;" d="M486 325L486 329L487 329L486 325z"/>
<path style="fill:#9a9c9d; stroke:none;" d="M517 325L518 326L517 325M605 325L606 326L605 325z"/>
<path style="fill:#ffffff; stroke:none;" d="M612 325L613 326L612 325z"/>
<path style="fill:#9a9c9d; stroke:none;" d="M459 326L460 327L459 326M519 326L520 327L519 326M528 326L529 327L528 326M566 326L566 329L567 329L566 326z"/>
<path style="fill:#ffffff; stroke:none;" d="M613 326L616 329L613 326z"/>
<path style="fill:#fdcc07; stroke:none;" d="M453 327L454 328L453 327z"/>
<path style="fill:#ffffff; stroke:none;" d="M460 327L461 328L460 327z"/>
<path style="fill:#9a9c9d; stroke:none;" d="M522 327L523 328L522 327M460 328L461 329L460 328M524 328L525 329L524 328M526 328L527 329L526 328M607 328L608 329L607 328z"/>
<path style="fill:#ffffff; stroke:none;" d="M461 329L462 330L461 329z"/>
<path style="fill:#9a9c9d; stroke:none;" d="M527 329L527 330L530 330L527 329z"/>
<path style="fill:#ffffff; stroke:none;" d="M616 329L619 332L616 329z"/>
<path style="fill:#fdcc07; stroke:none;" d="M454 330L455 331L454 330z"/>
<path style="fill:#9a9c9d; stroke:none;" d="M609 331L610 332L609 331z"/>
<path style="fill:#ffffff; stroke:none;" d="M463 332L464 333L463 332z"/>
<path style="fill:#9a9c9d; stroke:none;" d="M610 332L611 333L610 332z"/>
<path style="fill:#ffffff; stroke:none;" d="M464 333L465 334L464 333z"/>
<path style="fill:#9a9c9d; stroke:none;" d="M652.333 333.667L652.667 334.333L652.333 333.667M464 334L465 335L464 334M465 335L466 336L465 335M466 336L467 337L466 336z"/>
<path style="fill:#fdcc07; stroke:none;" d="M552 336L553 337L552 336z"/>
<path style="fill:#9a9c9d; stroke:none;" d="M613 336L614 337L613 336M651 336L652 337L651 336z"/>
<path style="fill:#ffffff; stroke:none;" d="M467 337L468 338L467 337z"/>
<path style="fill:#9a9c9d; stroke:none;" d="M614 337L615 338L614 337M624 337L625 338L624 337z"/>
<path style="fill:#ffffff; stroke:none;" d="M468 338L469 339L468 338z"/>
<path style="fill:#9a9c9d; stroke:none;" d="M615 338L616 339L615 338M650 338L651 339L650 338M653.333 338.667L653.667 339.333L653.333 338.667z"/>
<path style="fill:#ffffff; stroke:none;" d="M469 339L470 340L469 339z"/>
<path style="fill:#9a9c9d; stroke:none;" d="M616 339L617 340L616 339M627 339L628 340L627 339M459 340L460 341L459 340z"/>
<path style="fill:#ffffff; stroke:none;" d="M470 340L471 341L470 340z"/>
<path style="fill:#fdcc07; stroke:none;" d="M551 340L552 341L551 340z"/>
<path style="fill:#9a9c9d; stroke:none;" d="M617 340L618 341L617 340M629 340L630 341L629 340z"/>
<path style="fill:#ffffff; stroke:none;" d="M471 341L472 342L471 341z"/>
<path style="fill:#9a9c9d; stroke:none;" d="M631 341L632 342L631 341M647 341L648 342L647 341M472 342L473 343L472 342M633 342L634 343L633 342M646 342L647 343L646 342M652 342L653 343L652 342z"/>
<path style="fill:#fdcc07; stroke:none;" d="M461 343L462 344L461 343z"/>
<path style="fill:#9a9c9d; stroke:none;" d="M473 343L474 344L473 343z"/>
<path style="fill:#ffffff; stroke:none;" d="M474 343L475 344L474 343z"/>
<path style="fill:#9a9c9d; stroke:none;" d="M613 344L613 345C616.102 345 615 348.367 615 351L616 351L616 343L613 344M637.667 343.333L638.333 343.667L637.667 343.333M642.667 343.333L643.333 343.667L642.667 343.333z"/>
<path style="fill:#ffffff; stroke:none;" d="M475 344L476 345L475 344z"/>
<path style="fill:#383d40; stroke:none;" d="M614 344C596.327 354.276 580.001 350.512 561 349L560 358C574.568 359.151 588.608 361.967 603 357.251C609.394 355.156 617.323 351.932 614 344z"/>
<path style="fill:#9a9c9d; stroke:none;" d="M622 344L623 345L622 344M651 344L652 345L651 344M611 345L612 346L611 345M477 346L478 347L477 346z"/>
<path style="fill:#ffffff; stroke:none;" d="M478 346L479 347L478 346z"/>
<path style="fill:#9a9c9d; stroke:none;" d="M609 346L610 347L609 346M625 346L626 347L625 346M650 346L651 347L650 346z"/>
<path style="fill:#ffffff; stroke:none;" d="M479 347L480 348L479 347z"/>
<path style="fill:#9a9c9d; stroke:none;" d="M606.667 347.333L607.333 347.667L606.667 347.333M649 347L650 348L649 347z"/>
<path style="fill:#ffffff; stroke:none;" d="M481 348L482 349L481 348z"/>
<path style="fill:#fdcc07; stroke:none;" d="M547 348L548 349L547 348z"/>
<path style="fill:#9a9c9d; stroke:none;" d="M561 348L562 349L561 348M604 348L605 349L604 348M648 348L649 349L648 348M482 349L483 350L482 349z"/>
<path style="fill:#ffffff; stroke:none;" d="M483 349L484 350L483 349z"/>
<path style="fill:#9a9c9d; stroke:none;" d="M565.667 349.333L566.333 349.667L565.667 349.333M600.667 349.333L601.333 349.667L600.667 349.333M631 349L632 350L631 349M484 350L485 351L484 350z"/>
<path style="fill:#ffffff; stroke:none;" d="M485 350L486 351L485 350z"/>
<path style="fill:#9a9c9d; stroke:none;" d="M560 350L560 354L561 354L560 350M570 350L570 351L573 351L570 350M595.667 350.333L596.333 350.667L595.667 350.333M633.667 350.333L634.333 350.667L633.667 350.333M644 350L645 351L644 350M486 351L487 352L486 351z"/>
<path style="fill:#ffffff; stroke:none;" d="M487 351L488 352L487 351z"/>
<path style="fill:#9a9c9d; stroke:none;" d="M577 351L577 352L589 352L577 351M638 351L638 352L642 352L638 351M488 352L489 353L488 352z"/>
<path style="fill:#ffffff; stroke:none;" d="M489 352L490 353L489 352z"/>
<path style="fill:#fdcc07; stroke:none;" d="M544 352L545 353L544 352z"/>
<path style="fill:#9a9c9d; stroke:none;" d="M613 352L614 353L613 352z"/>
<path style="fill:#ffffff; stroke:none;" d="M492 353L493 354L492 353z"/>
<path style="fill:#9a9c9d; stroke:none;" d="M611 353L612 354L611 353M494 354L495 355L494 354z"/>
<path style="fill:#ffffff; stroke:none;" d="M495.667 354.333L496.333 354.667L495.667 354.333z"/>
<path style="fill:#9a9c9d; stroke:none;" d="M528 354L529 355L528 354M609 354L610 355L609 354z"/>
<path style="fill:#fdcc07; stroke:none;" d="M473 355L474 356L473 355z"/>
<path style="fill:#ffffff; stroke:none;" d="M499.667 355.333L500.333 355.667L499.667 355.333z"/>
<path style="fill:#9a9c9d; stroke:none;" d="M541 355L542 356L541 355M607 355L608 356L607 355z"/>
<path style="fill:#ffffff; stroke:none;" d="M505 356L505 357L509 357L505 356M516 356L516 357L519 357L516 356z"/>
<path style="fill:#9a9c9d; stroke:none;" d="M520 356L521 357L520 356z"/>
<path style="fill:#fdcc07; stroke:none;" d="M540 356L541 357L540 356z"/>
<path style="fill:#9a9c9d; stroke:none;" d="M605 356L606 357L605 356z"/>
<path style="fill:#fdcc07; stroke:none;" d="M476 357L477 358L476 357z"/>
<path style="fill:#9a9c9d; stroke:none;" d="M602 357L603 358L602 357M562 358L562 359L565 359L562 358M598.667 358.333L599.333 358.667L598.667 358.333z"/>
<path style="fill:#fdcc07; stroke:none;" d="M536 359L537 360L536 359z"/>
<path style="fill:#9a9c9d; stroke:none;" d="M568 359L568 360L571 360L568 359M592 359L592 360L596 360L592 359M577 360L577 361L587 361L577 360z"/>
<path style="fill:#fdcc07; stroke:none;" d="M531 362L532 363L531 362M488 363L489 364L488 363M491 364L492 365L491 364M526 364L527 365L526 364M494 365L495 366L494 365M523 365L524 366L523 365M499 366L500 367L499 366z"/>
<path style="fill:#9a9c9d; stroke:none;" d="M500 366L501 367L500 366z"/>
<path style="fill:#fdcc07; stroke:none;" d="M519 366L520 367L519 366z"/>
<path style="fill:#9a9c9d; stroke:none;" d="M539 385L539 386L555 386L539 385M895 455L896 455L896 423C896 418.606 894.963 413.617 899 411C893.84 409.841 895 417.653 895 421L895 455z"/>
<path style="fill:#fdcc07; stroke:none;" d="M48 471L61 471L61 448L94 447L94 435L61 434C68.1427 421.641 81.5422 424 94 424L94 412C83.8873 412 71.5359 409.57 62 413.483C41.6599 421.829 48 453.619 48 471M146 471L146 458C138.269 458 126.895 460.099 120.094 455.772C109.018 448.724 114 422.396 114 411C110.82 411 104.262 409.782 102.028 412.603C99.8249 415.385 101 421.672 101 425C101 436.667 98.4425 451.942 105.8 461.96C114.689 474.062 132.946 471 146 471M136 411L155.914 444L157 471L170 471L170.51 446L192 412C187.764 412 181.286 410.779 177.39 412.603C172.103 415.079 166.688 427.667 165 433L163 433C160.639 427.36 155.644 414.148 149.787 411.603C145.962 409.942 140.107 411 136 411M196 471L209 471L209 412L197.028 412.603L196 428L196 471M217 471L231 471L232 424L234 424C238.68 436.133 240.863 454.989 249.394 464.895C256.505 473.153 271.743 471.439 275.852 460.999C281.159 447.514 277 425.438 277 411L264 411L264 445C263.998 450.109 264.631 455.221 259 457C257.391 446.104 251.714 424.574 244.291 416.329C237.369 408.641 224.275 410.04 219.09 419.005C216.181 424.033 217 430.429 217 436L217 471M310 434L310 448C312.587 447.796 315.412 447.021 317.999 447.318C322.716 447.859 327.293 453.724 321.851 456.972C317.83 459.372 308.054 458.657 304.04 456.543C293.966 451.238 294.537 431.501 304.015 425.938C311.492 421.551 324.614 424 333 424L333 412C319.837 412 301.655 407.771 291.213 418.213C276.897 432.529 282.369 465.584 303 470.319C310.737 472.096 323.175 472.515 329.985 468.03C339.984 461.445 340.854 445.179 330.907 438.109C325.208 434.058 316.743 434.532 310 434z"/>
<path style="fill:#383d40; stroke:none;" d="M370 411L370 424C379.353 424 389.761 422.701 398.999 424.148C402.136 424.64 406.259 427.169 404.824 430.942C401.823 438.836 384.44 433.379 378.004 437.09C366.696 443.609 370 460.035 370 471L383 471C383 465.363 380.993 454.905 384.603 450.228C389.945 443.31 402.794 449.061 409.996 444.91C419.453 439.461 421.714 424.131 413.66 416.394C409.133 412.045 402.855 412.002 397 412C388.173 411.997 378.626 413.054 370 411z"/>
<path style="fill:#9a9c9d; stroke:none;" d="M371 411L371 412L404 412L371 411z"/>
<path style="fill:#383d40; stroke:none;" d="M426 411L426 424C435.353 424 445.761 422.701 454.999 424.148C458.136 424.64 462.259 427.169 460.824 430.942C457.823 438.836 440.44 433.379 434.004 437.09C422.8 443.549 426 460.137 426 471L439 471L439 456L476 472L476 458L451 448L451 447C456.942 447 463.013 447.462 467.981 443.581C476.445 436.971 477.496 421.268 467.957 414.995C456.505 407.464 438.849 414.059 426 411z"/>
<path style="fill:#9a9c9d; stroke:none;" d="M427 411L427 412L460 412L427 411M501 411L501 412L517 412L501 411z"/>
<path style="fill:#383d40; stroke:none;" d="M546 411L546 471C558.551 471 574.715 473.726 585.985 467.12C601.196 458.203 601.545 426.938 587.985 416.419C576.514 407.522 559.169 414.135 546 411z"/>
<path style="fill:#9a9c9d; stroke:none;" d="M547 411L547 412L576 412L547 411z"/>
<path style="fill:#383d40; stroke:none;" d="M605 411C605 425.193 600.87 447.184 607.674 459.996C615.387 474.522 643.254 475.219 651.633 460.985C659.123 448.264 655 426.294 655 412L643 412C643 423.121 646.607 441.978 641.312 451.957C637.057 459.975 623.502 460.104 619.179 451.957C614.161 442.5 618 422.633 618 412L605 411z"/>
<path style="fill:#9a9c9d; stroke:none;" d="M607 411L607 412L618 412L607 411M642 411L642 450L643 450L643 412L655 412L642 411M684 411L684 412L711 412L711 424L712 424L712 411L684 411M717 411L718 412L717 411z"/>
<path style="fill:#383d40; stroke:none;" d="M718 411L717 424L731 424L731 471L744 471L744 424L757 424L757 412L718 411z"/>
<path style="fill:#9a9c9d; stroke:none;" d="M719 411L719 412L757 412C746.964 407.789 729.911 411 719 411M763 411L764 412L763 411z"/>
<path style="fill:#383d40; stroke:none;" d="M764 411C758.831 428.488 763 452.734 763 471L776 471L776 412L764 411z"/>
<path style="fill:#9a9c9d; stroke:none;" d="M765 411L765 412L776 412L765 411M805 411L805 412L821 412L805 411M861.667 411.333L862.333 411.667L861.667 411.333z"/>
<path style="fill:#383d40; stroke:none;" d="M849 471L862 471C862 456.001 859.44 438.386 864 424L866 424C870.68 436.133 873.266 456.318 882.34 465.786C889.04 472.777 902.996 471.077 907.005 461.985C913.111 448.142 909 425.909 909 411L896 411C896 425.624 899.041 444.167 894 458L892 458C887.343 445.927 884.696 425.518 875.786 416.109C868.3 408.203 854.161 410.772 850.148 421C844.851 434.503 849 456.548 849 471z"/>
<path style="fill:#9a9c9d; stroke:none;" d="M867.667 411.333L868.333 411.667L867.667 411.333M406.667 412.333L407.333 412.667L406.667 412.333M462.667 412.333L463.333 412.667L462.667 412.333M497.667 412.333L498.333 412.667L497.667 412.333z"/>
<path style="fill:#383d40; stroke:none;" d="M499 412.468C479.139 416.221 474.1 446.097 484.649 460.996C492.161 471.605 507.252 472.546 519 470.192C539.249 466.135 544.913 435.12 532.606 420.04C525.07 410.805 509.9 410.408 499 412.468z"/>
<path style="fill:#9a9c9d; stroke:none;" d="M520.667 412.333L521.333 412.667L520.667 412.333M545 412L545 471L546 471L546 431L545 412M579.667 412.333L580.333 412.667L579.667 412.333M604 412L604 450L605 450C605 439.089 608.211 422.036 604 412M679.667 412.333L680.333 412.667L679.667 412.333z"/>
<path style="fill:#383d40; stroke:none;" d="M711 471L711 459C702.845 459 688.065 460.592 681.105 455.991C671.721 449.786 673.23 430.429 683.005 425.457C690.423 421.683 702.842 424 711 424L711 412C699.976 412 683.792 409.03 674.001 415.005C658.767 424.301 657.404 455.835 672.015 466.351C682.357 473.795 699.021 471 711 471z"/>
<path style="fill:#9a9c9d; stroke:none;" d="M800.667 412.333L801.333 412.667L800.667 412.333z"/>
<path style="fill:#383d40; stroke:none;" d="M802 412.518C781.456 416.909 777.223 448.305 789.39 462.957C797.018 472.142 812.248 472.364 823 469.985C843.458 465.457 847.612 434.897 835.61 420.015C828.195 410.823 812.857 410.197 802 412.518z"/>
<path style="fill:#9a9c9d; stroke:none;" d="M823.667 412.333L824.333 412.667L823.667 412.333M858 412L859 413L858 412M871 412L872 413L871 412M409 413L410 414L409 413M465 413L466 414L465 413M494 413L495 414L494 413M523.667 413.333L524.333 413.667L523.667 413.333M582.667 413.333L583.333 413.667L582.667 413.333M676 413L677 414L676 413M798 413L799 414L798 413M827 413L828 414L827 413M411 414L412 415L411 414M467 414L468 415L467 414M492 414L493 415L492 414M526 414L527 415L526 414M585 414L586 415L585 414M674 414L675 415L674 414M829 414L830 415L829 414M854 414L855 415L854 414M874 414L875 415L874 414M527 415L528 416L527 415M831 415L832 416L831 415M853 415L854 416L853 415M875 415L876 416L875 415M489 416L490 417L489 416M529 416L530 417L529 416M588 416L589 417L588 416M671 416L672 417L671 416M792 416L793 417L792 416M832 416L833 417L832 416M852 416L853 417L852 416M876 416L877 417L876 416M530 417L531 418L530 417M589 417L590 418L589 417M670 417L671 418L670 417M791 417L792 418L791 417M833 417L834 418L833 417M851 417L852 418L851 417M415 418L416 419L415 418M531 418L532 419L531 418M590 418L591 419L590 418M669 418L670 419L669 418M790 418L791 419L790 418M834 418L835 419L834 418M416 419L417 420L416 419M472 419L473 420L472 419M486 419L487 420L486 419M532 419L533 420L532 419M591 419L592 420L591 419M668 419L669 420L668 419M789 419L790 420L789 419M835 419L836 420L835 419M850 419L851 420L850 419M878 419L879 420L878 419M485 420L486 421L485 420M592 420L593 421L592 420M836 420L837 421L836 420M417.333 421.667L417.667 422.333L417.333 421.667M473 421L474 422L473 421M879 421L880 422L879 421M534 422L535 423L534 422M593 422L594 423L593 422M666 422L667 423L666 422M787 422L788 423L787 422M837 422L838 423L837 422M849 422L850 423L849 422M483 423L484 424L483 423M838.333 423.667L838.667 424.333L838.333 423.667M370 424L370 425L403 425L370 424M418 424L418 428L419 428L418 424M426 424L426 425L459 425L426 424M474 424L474 427L475 427L474 424M502 424L502 425L517 425L502 424M535 424L536 425L535 424M559 424L559 425L576 425L559 424M594 424L595 425L594 424M665 424L666 425L665 424M684 424L684 425L703 425L684 424M704 424L705 425L704 424M717 424L717 425L731 425L717 424M744 424L744 471L745 471L745 425L750 425L744 424M786 424L787 425L786 424M805 424L805 425L821 425L805 424M864.667 424.333L865.333 424.667L864.667 424.333M880.333 424.667L880.667 425.333L880.333 424.667M482 425L483 426L482 425M499 425L500 426L499 425z"/>
<path style="fill:#ffffff; stroke:none;" d="M500.043 425.742C491.317 429.28 491.159 446.221 495.738 452.945C499.858 458.994 511.604 459.619 517.985 457.106C527.306 453.436 528.19 435.188 522.347 428.228C518.458 423.595 505.353 423.59 500.043 425.742z"/>
<path style="fill:#9a9c9d; stroke:none;" d="M519 425L520 426L519 425z"/>
<path style="fill:#ffffff; stroke:none;" d="M559 425L559 458C565.015 458 573.654 459.547 578.945 456.142C586.586 451.225 587.221 432.197 579.786 426.742C574.822 423.1 564.866 425 559 425z"/>
<path style="fill:#9a9c9d; stroke:none;" d="M578 425L579 426L578 425M802 425L801 427L802 425z"/>
<path style="fill:#ffffff; stroke:none;" d="M803.094 425.858C794.889 429.491 794.743 447.651 799.653 453.867C803.995 459.363 815.918 459.361 821.957 456.852C830.846 453.158 831.396 434.746 825.567 428.228C821.502 423.683 808.441 423.491 803.094 425.858z"/>
<path style="fill:#9a9c9d; stroke:none;" d="M822 425L823 426L822 425M839.333 425.667L839.667 426.333L839.333 425.667M536.333 426.667L536.667 427.333L536.333 426.667M595.333 426.667L595.667 427.333L595.333 426.667M664 426L665 427L664 426M680 426L681 427L680 426M785 426L786 427L785 426M824 426L825 427L824 426M405 427L406 428L405 427M461 427L462 428L461 427M679 427L680 428L679 427M825 427L826 428L825 427M867 427L868 428L867 427M881.333 427.667L881.667 428.333L881.333 427.667M481 428L482 429L481 428M678 428L679 429L678 428M799 428L800 429L799 428M826 428L827 429L826 428M840.333 428.667L840.667 429.333L840.333 428.667M862 428L862 471L863 471C863 458.781 866.711 439.225 862 428M495 429L496 430L495 429M523 429L524 430L523 429M537 429L537 432L538 432L537 429M582 429L583 430L582 429M596.333 429.667L596.667 430.333L596.333 429.667M663 429L664 430L663 429M677 429L678 430L677 429M784 429L785 430L784 429M798 429L799 430L798 429M827 430L828 431L827 430M868 430L869 431L868 430M882 430L883 431L882 430M940 430L940 431L949 431L940 430M967 430L967 431L994 431L967 430z"/>
<path style="fill:#383d40; stroke:none;" d="M998 430L998 470C1005.87 470 1016.93 471.984 1024 467.91C1034.3 461.97 1035.71 440.913 1025.9 433.703C1018.68 428.403 1006.45 431.57 998 430z"/>
<path style="fill:#9a9c9d; stroke:none;" d="M1000 430L1000 431L1019 431L1000 430M405 431L406 432L405 431M418 431L418 435L419 435L418 431M461 431L462 432L461 431M494 431L495 432L494 431M524 431L525 432L524 431M583 431L584 432L583 431z"/>
<path style="fill:#383d40; stroke:none;" d="M940 431C940 442.903 935.974 463.351 950 468.852C955.967 471.192 963.701 470 970 470L970 462C964.661 462 957.781 463.121 953.109 459.991C945.8 455.094 949 438.705 949 431L940 431M967 431L967 439L977 439L977 470L985 470L985 439L994 439L994 431L967 431z"/>
<path style="fill:#9a9c9d; stroke:none;" d="M1021.67 431.333L1022.33 431.667L1021.67 431.333M474 432L474 435L475 435L474 432M480 432L481 433L480 432M676 432L677 433L676 432M797 432L798 433L797 432M841 432L841 437L842 437L841 432M1024 432L1025 433L1024 432M783.333 433.667L783.667 434.333L783.333 433.667M828 433L828 436L829 436L828 433M869 433L870 434L869 433M883.333 433.667L883.667 434.333L883.333 433.667M385 434L385 435L403 435L385 434M441 434L441 435L459 435L441 434M493.333 434.667L493.667 435.333L493.333 434.667M525 434L525 439L526 439L525 434M538 434L538 449L539 449L538 434M584 434L584 438L585 438L584 434M597 434L597 448L598 448L597 434M662 434L662 437L663 437L662 434M1027 434L1028 435L1027 434M381 435L382 436L381 435M437 435L438 436L437 435M796 435L796 447L797 447L796 435M1028 435L1029 436L1028 435M417.333 436.667L417.667 437.333L417.333 436.667M473.333 436.667L473.667 437.333L473.333 436.667M675 436L675 447L676 447L675 436M870 436L871 437L870 436M884.333 436.667L884.667 437.333L884.333 436.667M1029 437L1030 438L1029 437M375 438L376 439L375 438M416.333 438.667L416.667 439.333L416.333 438.667M431 438L432 439L431 438M662 438L663 439L662 438M1030.33 438.667L1030.67 439.333L1030.33 438.667M374 439L375 440L374 439M430 439L431 440L430 439M472 439L473 440L472 439M829 439L829 444L830 444L829 439M871 439L872 440L871 439M885.333 439.667L885.667 440.333L885.333 439.667M967 439L967 440L976 440L976 470L977 470L977 439L967 439M985 439L985 470L986 470L986 440L990 440L985 439M1007 439L1007 440L1019 440L1007 439M373 440L374 441L373 440M415 440L416 441L415 440M429 440L430 441L429 440M471 440L472 441L471 440z"/>
<path style="fill:#ffffff; stroke:none;" d="M1007 440L1007 461C1010.85 461 1016.41 461.984 1019.86 459.972C1025.1 456.913 1025.76 444.625 1020.58 441.179C1017.12 438.878 1010.96 440 1007 440z"/>
<path style="fill:#9a9c9d; stroke:none;" d="M1020 440L1021 441L1020 440M1031 440L1031 443L1032 443L1031 440M414 441L415 442L414 441M470 441L471 442L470 441M413 442L414 443L413 442M469 442L470 443L469 442M872 442L873 443L872 442M886.333 442.667L886.667 443.333L886.333 442.667M1022 442L1023 443L1022 442M412 443L413 444L412 443M468 443L469 444L468 443M584 443L584 448L585 448L584 443M411 444L412 445L411 444M467 444L468 445L467 444M525 444L525 448L526 448L525 444M1023.33 444.667L1023.67 445.333L1023.33 444.667M409 445L410 446L409 445M465 445L466 446L465 445M873 445L874 446L873 445M887 445L888 446L887 445M1032 445L1032 456L1033 456L1032 445M370 446L371 447L370 446M406.667 446.333L407.333 446.667L406.667 446.333M426.333 446.667L426.667 447.333L426.333 446.667M462.667 446.333L463.333 446.667L462.667 446.333M493.333 446.667L493.667 447.333L493.333 446.667M662 446L662 449L663 449L662 446M841 446L841 451L842 451L841 446M387 447L387 448L404 448L387 447M451 447L451 448L460 448L451 447M783.333 447.667L783.667 448.333L783.333 447.667M828 447L828 450L829 450L828 447M874.333 447.667L874.667 448.333L874.333 447.667M888 448L889 449L888 448M455 449L456 450L455 449M383 450L384 451L383 450M457 450L458 451L457 450M480 450L481 451L480 450M524.333 450.667L524.667 451.333L524.333 450.667M583.333 450.667L583.667 451.333L583.333 450.667M676 450L677 451L676 450M797 450L798 451L797 450M875.333 450.667L875.667 451.333L875.333 450.667M459.667 451.333L460.333 451.667L459.667 451.333M494 451L495 452L494 451M537 451L537 454L538 454L537 451M596.333 451.667L596.667 452.333L596.333 451.667M618 451L619 452L618 451M827 451L828 452L827 451M889 451L890 452L889 451M462 452L463 453L462 452M523.333 452.667L523.667 453.333L523.333 452.667M641 452L642 453L641 452M663.333 452.667L663.667 453.333L663.333 452.667M677 452L678 453L677 452M798 452L799 453L798 452M840 452L840 455L841 455L840 452M464 453L465 454L464 453M495 453L496 454L495 453M582 453L583 454L582 453M619 453L620 454L619 453M654 453L654 456L655 456L654 453M784 453L785 454L784 453M826 453L827 454L826 453M876.333 453.667L876.667 454.333L876.333 453.667M466.667 454.333L467.333 454.667L466.667 454.333M481 454L482 455L481 454M496 454L497 455L496 454M522 454L523 455L522 454M581 454L582 455L581 454M605.333 454.667L605.667 455.333L605.333 454.667M620 454L621 455L620 454M678 454L679 455L678 454M799 454L800 455L799 454M890 454L891 455L890 454M1023 454L1023 457L1024 457L1023 454M469 455L470 456L469 455M497 455L498 456L497 455M521 455L522 456L521 455M536.333 455.667L536.667 456.333L536.333 455.667M580 455L581 456L580 455M595 455L596 456L595 455M621 455L622 456L621 455M639 455L640 456L639 455M679 455L680 456L679 455M800 455L801 456L800 455M439 456L440 457L439 456M471 456L472 457L471 456M498 456L499 457L498 456M520 456L521 457L520 456M579 456L580 457L579 456M623 456L624 457L623 456M637 456L638 457L637 456M664 456L665 457L664 456M785 456L786 457L785 456M823 456L824 457L823 456M839 456L840 457L839 456M877.333 456.667L877.667 457.333L877.333 456.667M894 456L895 457L894 456M908 456L908 460L909 460L908 456M949 456L950 457L949 456M473.667 457.333L474.333 457.667L473.667 457.333M482 457L483 458L482 457M500.667 457.333L501.333 457.667L500.667 457.333M517.667 457.333L518.333 457.667L517.667 457.333M576.667 457.333L577.333 457.667L576.667 457.333M594.333 457.667L594.667 458.333L594.333 457.667M606 457L607 458L606 457M625.667 457.333L626.333 457.667L625.667 457.333M634.667 457.333L635.333 457.667L634.667 457.333M653.333 457.667L653.667 458.333L653.333 457.667M683 457L684 458L683 457M804 457L805 458L804 457M820.667 457.333L821.333 457.667L820.667 457.333M892.667 457.333L893.333 457.667L892.667 457.333M940.333 457.667L940.667 458.333L940.333 457.667M444 458L445 459L444 458M535 458L536 459L535 458M665 458L666 459L665 458M697 458L697 459L711 459L711 471L712 471L712 458L697 458M786 458L787 459L786 458M838 458L839 459L838 458M950 458L951 459L950 458M1022 458L1023 459L1022 458M1031.33 458.667L1031.67 459.333L1031.33 458.667M446 459L447 460L446 459M483 459L484 460L483 459M593 459L594 460L593 459M652.333 459.667L652.667 460.333L652.333 459.667M878 459L879 460L878 459M951 459L952 460L951 459M1021 459L1022 460L1021 459M448 460L449 461L448 460M534 460L535 461L534 460M666 460L667 461L666 460M787 460L788 461L787 460M837 460L838 461L837 460M953 460L954 461L953 460M1020 460L1021 461L1020 460M451 461L452 462L451 461M533 461L534 462L533 461M592 461L593 462L592 461M608 461L609 462L608 461M651 461L652 462L651 461M907 461L908 462L907 461M955 461L955 462L970 462L955 461M1007 461L1007 462L1019 462L1007 461M1030 461L1031 462L1030 461M453 462L454 463L453 462M485 462L486 463L485 462M591 462L592 463L591 462M879 462L880 463L879 462M455 463L456 464L455 463M486 463L487 464L486 463M789 463L790 464L789 463M835 463L836 464L835 463M880 463L881 464L880 463M906 463L907 464L906 463M1029 463L1030 464L1029 463M457 464L458 465L457 464M487 464L488 465L487 464M649 464L650 465L649 464M790 464L791 465L790 464M834 464L835 465L834 464M943 464L944 465L943 464M1028 464L1029 465L1028 464M460 465L461 466L460 465M488 465L489 466L488 465M588 465L589 466L588 465M648 465L649 466L648 465M791 465L792 466L791 465M833 465L834 466L833 465M944 465L945 466L944 465M1027 465L1028 466L1027 465M462 466L463 467L462 466M489 466L490 467L489 466M528 466L529 467L528 466M587 466L588 467L587 466M613 466L614 467L613 466M646 466L647 467L646 466M831 466L832 467L831 466M945 466L946 467L945 466M1026 466L1027 467L1026 466M464 467L465 468L464 467M491 467L492 468L491 467M585.667 467.333L586.333 467.667L585.667 467.333M645 467L646 468L645 467M673 467L674 468L673 467M794 467L795 468L794 467M830 467L831 468L830 467M902 467L903 468L902 467M946 467L947 468L946 467M1025 467L1026 468L1025 467M466.667 468.333L467.333 468.667L466.667 468.333M493 468L494 469L493 468M525 468L526 469L525 468M583.667 468.333L584.333 468.667L583.667 468.333M643 468L644 469L643 468M675 468L676 469L675 468M796 468L797 469L796 468M828 468L829 469L828 468M885 468L886 469L885 468M901 468L902 469L901 468M948 468L949 469L948 468M1023 468L1024 469L1023 468M469 469L470 470L469 469M495 469L496 470L495 469M522 469L523 470L522 469M581 469L582 470L581 469M619 469L620 470L619 469M640.667 469.333L641.333 469.667L640.667 469.333M678 469L679 470L678 469M799 469L800 470L799 469M825.667 469.333L826.333 469.667L825.667 469.333M887 469L888 470L887 469M898 469L899 470L898 469M950.667 469.333L951.333 469.667L950.667 469.333M1020.67 469.333L1021.33 469.667L1020.67 469.333M471 470L472 471L471 470M499.667 470.333L500.333 470.667L499.667 470.333M517 470L517 471L520 471L517 470M576 470L576 471L579 471L576 470M622.667 470.333L623.333 470.667L622.667 470.333M636.667 470.333L637.333 470.667L636.667 470.333M681 470L681 471L684 471L681 470M802.667 470.333L803.333 470.667L802.667 470.333M820 470L820 471L823 471L820 470M890 470L890 471L896 471L890 470M955 470L955 471L965 471L955 470M977 470L977 471L985 471L977 470M998 470L998 471L1017 471L998 470M473.667 471.333L474.333 471.667L473.667 471.333M475 472L476 473L475 472z"/>
</svg>
